<?xml version="1.0" encoding="iso-8859-1"?>
<!-- Generator: Adobe Illustrator 19.0.0, SVG Export Plug-In . SVG Version: 6.00 Build 0)  -->
<svg version="1.1" id="Layer_1" xmlns="http://www.w3.org/2000/svg" xmlns:xlink="http://www.w3.org/1999/xlink" x="0px" y="0px"
	 viewBox="0 0 512 512" style="enable-background:new 0 0 512 512;" xml:space="preserve">
<path style="fill:#FDBF00;" d="M468.293,447.101H43.707C19.607,447.101,0,427.494,0,403.394V108.606
	c0-25.757,22.794-47.225,39.235-31.111L256,289.939L472.765,77.497C489.225,61.365,512,82.875,512,108.606v294.787
	C512,427.494,492.393,447.101,468.293,447.101z"/>
<path style="fill:#FF9800;" d="M472.765,77.496L256,289.939v157.162h212.293c24.1,0,43.707-19.607,43.707-43.707V108.606
	C512,82.875,489.225,61.365,472.765,77.496z"/>
<path style="fill:#FCE277;" d="M242.889,329.544L13.014,104.252c-3.582-3.51-5.606-8.309-5.621-13.323
	c-0.046-15.803,20.571-26.03,36.315-26.03h424.585c15.745,0,36.361,10.228,36.315,26.03c-0.015,5.014-2.039,9.814-5.621,13.323
	L269.111,329.544C261.828,336.682,250.172,336.682,242.889,329.544z"/>
<path style="fill:#FDDC55;" d="M468.293,64.899H256v269.999c4.735,0,9.47-1.784,13.111-5.354l229.875-225.292
	c3.582-3.51,5.606-8.309,5.621-13.323C504.653,75.125,484.036,64.899,468.293,64.899z"/>
<g>
</g>
<g>
</g>
<g>
</g>
<g>
</g>
<g>
</g>
<g>
</g>
<g>
</g>
<g>
</g>
<g>
</g>
<g>
</g>
<g>
</g>
<g>
</g>
<g>
</g>
<g>
</g>
<g>
</g>
</svg>
