<svg height="512" viewBox="0 0 60 60" width="512" xmlns="http://www.w3.org/2000/svg"><g id="Page-1" fill="none" fill-rule="evenodd"><g id="028---Tag" fill="rgb(0,0,0)" fill-rule="nonzero" transform="translate(0 -1)"><path id="Shape" d="m50.876 1.457c-3.5276599-1.07394818-7.3600158-.23145143-10.112 2.223-.088.071-.169.14-.251.21-1.0110022-.23867858-2.0667905-.20937985-3.063.085l-16.25 4.694c-1.5370938.43846302-2.8461154 1.4523728-3.655 2.831l-16.669 28.172c-1.7572655 2.9837695-.77421357 6.8266089 2.2 8.6l19.937 11.85c1.4305757.8484711 3.1397956 1.0933536 4.7510559.6806909 1.6112602-.4126627 2.9923427-1.4490079 3.8389441-2.8806909l16.668-28.176c.81591-1.3736337 1.0732862-3.0080975.719-4.566l-.033-.149c.125 0 .256.023.38.023 3.404466.1368925 6.6513677-1.4398201 8.649-4.2 2.1776435-3.2093161 2.6421697-7.282796 1.243-10.9-1.2749094-3.99936399-4.3760093-7.15392473-8.353-8.497zm-4.326 27.27-16.668 28.173c-.57564.9754369-1.5157125 1.6817733-2.6128219 1.9631796s-2.2611008.114758-3.2351781-.4631796l-19.941-11.844c-2.02694801-1.2114405-2.69416753-3.8329474-1.493-5.866l16.67-28.176c.5550002-.932696 1.4436144-1.6197098 2.486-1.922l16.263-4.7c.2112837-.06257246.4273402-.1077236.646-.135-.8658789.99756793-1.6595564 2.05558179-2.375 3.166-2.2567086-.05623667-4.3697066 1.1040178-5.5333652 3.0383898-1.1636585 1.934372-1.1986188 4.3447098-.0915514 6.3120171 1.1070675 1.9673073 3.1855263 3.1883559 5.4429166 3.1975931.5273006-.0012436 1.0523756-.0684317 1.563-.2 1.8812881-.4809572 3.4333652-1.8068117 4.20236-3.5898461.7689947-1.7830344.6680334-3.8218185-.27336-5.5201539.5669494-.8695133 1.1980374-1.6954765 1.888-2.471l3.551 15.928c.2352307 1.0609076.0605467 2.1715263-.489 3.109zm-6.682-13.769s.177-.3.412-.69c.5076805 2.2495292-.8660017 4.494835-3.1 5.067-1.0959764.284806-2.2604136.1176343-3.232-.464-1.4677977-.8706305-2.2775451-2.5305075-2.0602271-4.2231978.2173181-1.6926903 1.4201035-3.0941859 3.0602271-3.5658022-.14.236-.284.475-.419.7-.8726394 1.4782269-.3863105 3.3837601 1.088 4.263 1.477244.8734327 3.3827844.3851884 4.258-1.091zm5.432-6.311c-.036-.167-.085-.331-.135-.494 1.1265834-.87637049 2.6119839-1.1429425 3.973-.713 2.0255838.78917622 3.5792437 2.46107332 4.218 4.539.712134 1.718579.5543589 3.6747667-.424 5.257-1.3 1.824-3.745 1.736-5.4 1.41zm11.058 11.043c-1.721 2.423-4.428 3.553-7.852 3.319l-.506-2.269c2.9.369 5.2-.432 6.563-2.343 1.3604014-2.1058836 1.6171485-4.7400565.689-7.069-.8427042-2.69622317-2.89631-4.84414989-5.552-5.807-2.2057862-.66674348-4.5997127-.11327409-6.289 1.454-.035.029-.069.059-.107.1-1.464517 1.31100822-2.7223996 2.83590847-3.731 4.523l-.006.009c-.509.8-1.419 2.335-1.419 2.335-.3123551.523882-.9888937.6975939-1.515.389-.2542422-.1520857-.4375792-.3990216-.509609-.6863904-.0720298-.2873689-.0268407-.5915855.125609-.8456096.434-.734.9-1.521 1.4-2.312l.019-.029c1.0569863-1.75497047 2.348199-3.3577161 3.838-4.764.1604212-.16213494.3311071-.31378145.511-.454 2.2515773-2.02317039 5.3946736-2.72689957 8.294-1.857 3.3550587 1.1543023 5.9631169 3.83249759 7.028 7.217 1.1835007 3.007527.8169257 6.4042309-.981 9.09z"/><path id="Shape" d="m40.355 28.816-19.1-11.347c-.9582409-.567561-2.1951375-.2510623-2.763.707l-13.472 22.775c-.56613797.9579719-.25091176 2.1933904.705 2.763l19.1 11.347c.3103191.1849024.6647705.2826701 1.026.283.1686293-.0002641.3365759-.0214254.5-.063.5195372-.1309667.9648016-.464915 1.236-.927l13.474-22.774c.5654684-.9586191.2499226-2.1939851-.706-2.764zm-14.507 24.525-19.102-11.347-.511.86 14-23.665 19.105 11.372z"/><path id="Shape" d="m15.16 44.409c.4750205.280723 1.0876507.1236498 1.369-.351l10.21-17.258c.1976962-.3079323.2114105-.6992559.0357564-1.0202727-.175654-.3210167-.5126212-.5204543-.8785527-.5199806s-.7023813.2007829-.8772037.5222533l-10.21 17.257c-.1351346.2282171-.1740722.5007702-.1082464.7576971.0658258.2569268.2310224.4771798.4592464.6123029z"/><path id="Shape" d="m20.6 47.64c.4752816.2805507 1.0879896.12301 1.369-.352l10.209-17.258c.1911277-.3078699.2007471-.6950478.0251436-1.012029s-.5089494-.5141608-.8713196-.5154c-.3623701-.0012391-.6970568.1936562-.874824.509429l-10.21 17.258c-.1349644.2284595-.1735957.5011931-.1073877.7581477s.2318264.4770603.4603877.6118523z"/></g></g></svg>