<svg height="468pt" viewBox="0 -12 468 468" width="468pt" xmlns="http://www.w3.org/2000/svg"><path d="m415.386719 39.179688h-41.386719v-31.179688c0-4.417969-3.582031-8-8-8s-8 3.582031-8 8v31.179688h-243v-31.179688c0-4.417969-3.582031-8-8-8s-8 3.582031-8 8v31.179688h-46.386719c-28.886719 0-52.613281 23.949218-52.613281 52.835937v299.953125c0 28.886719 23.726562 52.210938 52.613281 52.210938h362.773438c28.886719 0 52.613281-23.324219 52.613281-52.210938v-299.953125c0-28.886719-23.726562-52.835937-52.613281-52.835937zm36.613281 352.789062c0 20.0625-16.546875 36.210938-36.613281 36.210938h-362.773438c-20.066406 0-36.613281-16.148438-36.613281-36.210938v-243.789062h436zm-436-259.789062v-40.164063c0-20.066406 16.546875-36.835937 36.613281-36.835937h46.386719v32.074218c0 4.417969 3.582031 8 8 8s8-3.582031 8-8v-32.074218h243v32.074218c0 4.417969 3.582031 8 8 8s8-3.582031 8-8v-32.074218h41.386719c20.066406 0 36.613281 16.769531 36.613281 36.835937v40.164063zm0 0"/><path d="m234 382.144531c52.292969 0 94.6875-42.390625 94.6875-94.683593 0-52.292969-42.394531-94.6875-94.6875-94.6875s-94.6875 42.394531-94.6875 94.6875c.058594 52.269531 42.417969 94.625 94.6875 94.683593zm0-173.367187c43.457031 0 78.6875 35.230468 78.6875 78.6875 0 43.457031-35.230469 78.6875-78.6875 78.6875s-78.6875-35.230469-78.6875-78.6875c.050781-43.4375 35.25-78.636719 78.6875-78.6875zm0 0"/><path d="m229.179688 303.179688h38.554687c4.417969 0 8-3.582032 8-8 0-4.417969-3.582031-8-8-8h-30.734375v-43.09375c0-4.417969-3.582031-8-8-8s-8 3.582031-8 8v50.601562c0 4.421875 3.761719 8.492188 8.179688 8.492188zm0 0"/><path d="m234 410.332031c67.859375 0 122.871094-55.011719 122.871094-122.871093 0-67.859376-55.011719-122.871094-122.871094-122.871094s-122.871094 55.011718-122.871094 122.871094c.074219 67.828124 55.042969 122.792968 122.871094 122.871093zm0-229.742187c59.023438 0 106.871094 47.847656 106.871094 106.871094 0 59.023437-47.847656 106.871093-106.871094 106.871093s-106.871094-47.847656-106.871094-106.871093c.066406-58.996094 47.875-106.804688 106.871094-106.871094zm0 0"/></svg>